<svg xmlns="http://www.w3.org/2000/svg" viewBox="0 0 64 64">
  <g>
    <circle cx="32" cy="32" r="30" fill="#eee" stroke="#333" stroke-width="2"/>
    <g>
      <path d="M32,32 L32,2 A30,30 0 0,1 59.021,16.5 Z" fill="#e74c3c"/>
      <path d="M32,32 L59.021,16.5 A30,30 0 0,1 59.021,47.5 Z" fill="#f1c40f"/>
      <path d="M32,32 L59.021,47.5 A30,30 0 0,1 32,62 Z" fill="#2ecc71"/>
      <path d="M32,32 L32,62 A30,30 0 0,1 4.979,47.5 Z" fill="#3498db"/>
      <path d="M32,32 L4.979,47.5 A30,30 0 0,1 4.979,16.5 Z" fill="#9b59b6"/>
      <path d="M32,32 L4.979,16.5 A30,30 0 0,1 32,2 Z" fill="#e67e22"/>
    </g>
    <circle cx="32" cy="32" r="6" fill="#fff" stroke="#333" stroke-width="2"/>
    <circle cx="32" cy="32" r="2" fill="#333"/>
  </g>
</svg>
